Coordinates
version=1
nRows=10
nColumns=28
inDegrees=yes

Units are S.I. units (second, meters, Newtons, ...)
Angles are in degrees.

endheader
time	pelvis_tilt	pelvis_list	pelvis_rotation	pelvis_tx	pelvis_ty	pelvis_tz	hip_flexion_r	hip_adduction_r	hip_rotation_r	knee_angle_r	ankle_angle_r	subtalar_angle_r	mtp_angle_r	hip_flexion_l	hip_adduction_l	hip_rotation_l	knee_angle_l	socket_flexion	socket_adduction	socket_rotation	socket_tx	socket_ty	socket_tz	foot_flex	lumbar_extension	lumbar_bending	lumbar_rotation
      0.62916667	      2.32061458	      6.07942183	     15.13989221	     -0.05092472	      1.00452503	      0.27863100	     21.39884823	     -9.52667191	    -14.86508837	     -8.95502596	     19.01506039	    -11.68533896	     -7.72230751	    -23.67077918	      3.32073385	     21.25047011	     -8.14579101	      0.00000000	      0.00000000	      0.00000000	      0.00000000	      0.00000000	      0.00000000	     10.26831882	    -17.10497459	     -4.21081276	    -13.40804666
      0.63333333	      2.26382005	      6.08886519	     15.05654916	     -0.05089190	      1.00436379	      0.27872271	     21.55496184	     -9.54999747	    -14.87237592	     -9.09897182	     18.94356140	    -11.61267888	     -7.63935757	    -23.62434494	      3.38023326	     21.15372233	     -8.13826254	      0.00000000	      0.00000000	      0.00000000	      0.00000000	      0.00000000	      0.00000000	     10.28961639	    -17.04424286	     -4.27199932	    -13.30455068
      0.63750000	      2.31559196	      5.99050082	     15.20738630	     -0.04443459	      1.00356077	      0.27863169	     21.62230829	     -9.42900470	    -14.56617811	     -9.79298710	     18.76060351	    -11.61869212	     -7.64180715	    -23.81537074	      3.17596512	     21.28929306	     -8.52123289	      0.00000000	      0.00000000	      0.00000000	      0.00000000	      0.00000000	      0.00000000	     10.18473913	    -17.02201063	     -4.01272107	    -13.32059007
      0.64166667	      2.43886261	      5.91345725	     15.11280907	     -0.03788552	      1.00260821	      0.27889823	     21.92016569	     -9.31120411	    -14.39247417	    -11.00403902	     18.35906815	    -11.74272358	     -7.56804841	    -24.11349519	      3.06690425	     21.07814263	     -8.87381089	      0.00000000	      0.00000000	      0.00000000	      0.00000000	      0.00000000	      0.00000000	     10.14229872	    -17.05810352	     -3.80392511	    -13.43897630
      0.64583333	      2.50492300	      5.80993442	     15.21206723	     -0.03143367	      1.00181738	      0.27890054	     22.02958205	     -9.17766621	    -14.06717556	    -11.81052613	     18.10389560	    -11.71440593	     -7.53185581	    -24.28323469	      2.88587494	     21.13696701	     -9.31912943	      0.00000000	      0.00000000	      0.00000000	      0.00000000	      0.00000000	      0.00000000	     10.03316563	    -17.04965707	     -3.53791664	    -13.44518430
      0.65000000	      2.40766333	      5.81954880	     14.97827100	     -0.02467940	      1.00047917	      0.27936217	     22.63481489	     -9.17961766	    -13.76546798	    -13.10956346	     16.32334892	    -12.06221422	     -1.51603018	    -24.35340173	      2.99733015	     20.79576974	     -9.74198845	      0.00000000	      0.00000000	      0.00000000	      0.00000000	      0.00000000	      0.00000000	      9.95377792	    -16.83020221	     -3.55265772	    -13.36846651
      0.65416667	      2.50985653	      5.68071171	     15.02280076	     -0.01815575	      0.99977640	      0.27946384	     22.74963298	     -8.99736374	    -13.53216407	    -13.99738313	     16.00991576	    -12.03933899	     -1.53122409	    -24.51828111	      2.80695534	     20.80124387	    -10.25753432	      0.00000000	      0.00000000	      0.00000000	      0.00000000	      0.00000000	      0.00000000	      9.80687824	    -16.83818591	     -3.25941079	    -13.37946069
      0.65833333	      2.54379449	      5.61613853	     14.75243700	     -0.01145532	      0.99871651	      0.28001485	     23.18370604	     -8.84743196	    -13.12739990	    -15.27693301	     15.50894286	    -11.99034069	     -0.90211757	    -24.66249513	      2.83454129	     20.35779199	    -10.74167126	      0.00000000	      0.00000000	      0.00000000	      0.00000000	      0.00000000	      0.00000000	      9.65517281	    -16.76393959	     -3.15860294	    -13.13594745
      0.66250000	      2.65211551	      5.45943049	     14.78540213	     -0.00488476	      0.99808521	      0.28014062	     23.30928016	     -8.65635476	    -12.94609184	    -16.22560556	     15.12442336	    -11.99170010	     -0.87663289	    -24.78745519	      2.64451784	     20.29922323	    -11.32578562	      0.00000000	      0.00000000	      0.00000000	      0.00000000	      0.00000000	      0.00000000	      9.47728403	    -16.76981669	     -2.84480911	    -13.16935773
      0.66666667	      2.76787005	      5.31057364	     14.66073676	      0.00181821	      0.99734871	      0.28047634	     23.52997265	     -8.44618105	    -12.75333507	    -17.32161695	     14.61653082	    -11.99362073	     -0.70705918	    -24.92734815	      2.52830652	     20.00969641	    -11.92228741	      0.00000000	      0.00000000	      0.00000000	      0.00000000	      0.00000000	      0.00000000	      9.27756856	    -16.75197122	     -2.57773282	    -13.18226685
